<?xml version="1.0" encoding="UTF-8"?>
<!DOCTYPE svg PUBLIC "-//W3C//DTD SVG 1.1//EN" "http://www.w3.org/Graphics/SVG/1.1/DTD/svg11.dtd">
<!-- Creator: CorelDRAW 2018 (64-Bit) -->
<svg xmlns="http://www.w3.org/2000/svg" xml:space="preserve" width="297mm" height="180mm" version="1.1" style="shape-rendering:geometricPrecision; text-rendering:geometricPrecision; image-rendering:optimizeQuality; fill-rule:evenodd; clip-rule:evenodd"
viewBox="0 0 29700 18000"
 xmlns:xlink="http://www.w3.org/1999/xlink"
 wide="200px">
 <defs>
  <style type="text/css">
   <![CDATA[
    .fil0 {fill:black}
   ]]>
  </style>
 </defs>
 <g id="Слой_x0020_1">
  <metadata id="CorelCorpID_0Corel-Layer"/>
  <g id="_1705039083408">
   <path class="fil0" d="M849.99 5379.39c0,-843.06 31.48,-1071.81 469.19,-1669.68 322.63,-440.69 645.83,-729.09 1174.41,-1033.5 962.07,-554.05 2095.34,-913.09 3259.19,-1157.59 2325.57,-488.59 5377.17,-851.14 7966.86,-851.14l2084.18 0c2480.63,0 5569.89,388.45 7754.52,920.37 1952.62,475.43 5291.65,1243.11 5291.65,3440.83l0 7818.88c0,839.83 -185.11,1274.23 -640.99,1694.95 -429.09,395.98 -747.62,639.88 -1387.38,924.22 -1081.35,480.59 -2270.44,873.68 -3477.92,1145.04 -2510.12,564.1 -5630.76,720.75 -8509.74,720.75 -3023.06,0 -5749.89,-206.24 -8440.95,-752.13 -1276.03,-258.86 -2357.68,-658.22 -3478.18,-1162.58 -992.37,-446.71 -2064.84,-1210.58 -2064.84,-2549.62l0 -7488.8zm867.01 73.23l0 7055.56c0,3614.51 9477.21,4021.61 13075.69,4021.61 3309.23,0 8156.32,-278.33 11165.37,-1543.67 842.62,-354.33 2073.14,-1151.26 2073.14,-2230.36l0 -7530.06c0,-1009.78 -1154.99,-1798.82 -1959.52,-2157.55 -2774.27,-1237.09 -7678.04,-1597.96 -10783.74,-1597.96l-1547.65 0c-3315.03,0 -12023.29,656.24 -12023.29,3982.43z"/>
   <path class="fil0" d="M3297.45 7248.07c-21.78,70.22 -16.76,401.9 -15.7,494.71 2.34,180.92 78.57,204.34 225.9,273.23 377.19,176.58 969.93,171.97 1463.67,172.91l1866 3.09c483.45,0.88 1080.82,-8.64 1338.32,-170.86 111.7,-70.34 67.99,-309.44 70.51,-433.8l-1.11 -995.6c-1.47,-147.56 49.12,-317.66 -97.21,-401.43 -454.54,-260.61 -1234.98,-251.72 -1748.58,-251.72 -333.91,0 -668.04,0 -1002.01,0 -246.99,0 -684.28,43.46 -882.04,-113.32 -48.12,-38.21 -23.71,-401.75 -23.71,-480.54 0,-83.24 0.06,-166.25 -0.06,-249.37 -0.12,-74.73 -24.71,-169.07 44.92,-202.78 230.22,-111.8 656.61,-82.77 917.44,-82.77 334.32,0 668.74,1.4 1002.88,-0.77 111.94,-0.7 333.5,25.24 439.77,62 82.37,28.38 123.42,36.56 121.1,127.4 -2.05,77.7 -4.1,170.22 1.8,247.21l1223.59 0c5.21,-156.84 9.64,-337 6.09,-492.97 -3.57,-163.91 -99.49,-196.28 -232.27,-254.75 -211.58,-93.54 -569.38,-154.52 -801.18,-174.91 -90.73,-7.89 -182.39,-15.08 -274.79,-15.25l-1999.07 -4.08c-489.36,-1.06 -1123.06,-3.62 -1470.47,151.76 -162.56,72.61 -204.34,105.09 -200.18,292.32l-2.4 1150.45c-0.17,102.05 6.78,208.44 59.07,259.08 145.92,141.67 534.03,210.42 732.64,245.92 303.37,54.17 626.77,38.15 934.84,38.15 326.55,0 652.99,0 979.54,0 235.06,0 713.96,-23.65 921.52,54.63 102.4,38.67 109.94,36.68 109.59,139.9 -0.94,219.3 -7.77,530.13 -0.41,730.91 1.74,49.65 34.57,177.87 0.58,220.98 -24.66,30.98 -124.55,71.62 -163.22,79.63 -132.13,27.4 -331.04,14.2 -471.82,14.2 -326.43,0 -652.98,0 -979.47,0 -245.41,0 -685.34,38.91 -888.94,-82.66l0 -353.07 -1205.13 2.17z"/>
   <path class="fil0" d="M10763.34 6438.49l2489.93 0 1 1754.41 1237.44 0.06 2.03 -799.36 -3.44 -2781.09c-19.69,-76 -153.93,-144.99 -231.33,-169.3 -227.58,-71.96 -402.02,-102.58 -675.81,-116.59 -162.05,-8.36 -328.42,-14.2 -496.78,-14.43l-2169.23 -2.58c-196.23,-0.29 -418.27,-7.25 -506.88,9.59 -45.34,8.63 -142.95,15.06 -185.53,18.05 -60.35,4.31 -117.66,13.38 -173.44,24.71 -107.43,22.14 -212,42.4 -312.7,80.21 -285.08,107.6 -217.66,169.22 -217.66,575.34l0 2382.75 1.29 792.64 1239.06 0.06 2.05 -1754.47zm-1.17 -491.92c-10.86,-252.08 -0.41,-620.73 -0.77,-895.02 -0.29,-132.89 4.5,-137.73 119.93,-178.69 260.84,-92.4 788.27,-66 1127.96,-66 294.71,0 930.29,-23.96 1132.75,62.04 119.94,50.7 111.35,40.25 111.29,189.37 -0.17,250.61 11.56,676.54 -1.11,888.47l-2490.05 -0.17z"/>
   <path class="fil0" d="M15612.3 8174.38l3978.63 1.58c279.33,0.06 689.13,-45.45 920.57,-196.7 115.96,-75.65 73.91,-307.9 73.79,-434.85 -0.17,-170.16 0,-340.34 0,-510.38 0,-336.26 83.19,-579.77 -266.5,-753.57 -263.35,-130.92 -515.99,-160 -789.56,-236.87 5.21,-18.54 346.99,-82.66 389,-94.13 120.69,-33.12 245.69,-80.43 360.54,-129.78 358.46,-154.11 306.46,-323.23 306.52,-662.22 0,-161 -1.29,-321.99 0.92,-482.82 2.35,-165.43 -74.24,-215.84 -227.52,-260.06 -259.32,-74.77 -580.83,-122.56 -850.83,-118.54 -1291.66,19.75 -2599.47,0.59 -3893.1,0.59l-2.46 3877.75zm1240.47 -3384.89l1886.74 -4.61c125.82,-0.29 605.36,-4.9 605.3,182.74l-0.06 405.63c0,124.84 10.53,202.89 -102.99,280.98 -80.02,54.86 -170.45,87.63 -261.76,118.06 -351.26,117.31 -809.93,157.08 -1181.34,156.57l-945.89 -1.47 0 -1137.9zm0 2892.2l0 -1260.68 945.89 -11.68c469.12,-5.74 957.66,37.97 1252.55,145.63 317.51,116.02 294.13,186.23 293.6,493.33 -0.18,127.93 -3.5,261 -0.12,388.22 4.28,156.16 -28.79,170.01 -182.72,208.39 -225.78,56.19 -513.6,37.73 -748.48,37.73 -518.39,0 -1043.16,8.17 -1560.72,-0.94z"/>
   <path class="fil0" d="M25527.41 6589.55l0 939.88c0,161.56 -236.06,161.74 -357.39,161.56l-879.64 -0.92c-271.97,0 -1119.48,51.18 -1260.38,-78.28l-6.02 -354.42c-71.86,-10.04 -1059.51,-3.14 -1217.87,-3.08l0 599.52c0,103.75 344.13,223.32 436.73,247.15 147.5,38.03 438.34,92.01 597.19,92.01l-22.32 0 2787.51 0c147.15,0 294.36,0 441.75,0 170.12,0 695.46,-112.56 719.17,-250.14 10.56,-60.53 1.75,-1268.39 1.75,-1443.01 0,-221.74 15.94,-242.83 -158.14,-330.51 -331.8,-167.31 -879.62,-235.18 -1426.7,-230.39l-1658.44 14.02c-179.51,1.56 -348.7,-22.15 -463.6,-100.2 -69.69,-47.3 -48.01,-94.92 -48.01,-190.78 0,-220.29 -8.01,-530.47 0.88,-731.2 113.03,-78.73 297.8,-121.39 502.96,-119.57l1555.68 13.03c196.8,1.64 367.86,44.74 454.42,108.94l0.53 320.77 1239.96 0 0.46 -564.48c0,-126.64 -403.15,-242.78 -521.08,-273.03 -184.06,-47.21 -504.77,-101.2 -708.25,-101.2l-2743.27 0c-197.62,0 -967.67,99.32 -999.16,308.33 -9.12,59.82 -1.23,1194.68 -1.23,1315.31 0,200.84 -1.23,197.62 142.66,289.75 71.25,45.45 235.65,100.7 321.51,118.75 255.29,53.52 480.47,105.33 775.3,105.33l2085.36 0c226.41,0 407.68,36.51 407.68,136.86z"/>
   <path class="fil0" d="M4233.79 12427.65l606.88 0 -223.26 -496.27c-12.69,-31.46 -26.4,-68 -40.09,-109.1 -13.71,-41.11 -27.91,-86.77 -41.62,-137.51 -11.66,47.69 -24.35,91.85 -38.06,132.94 -13.18,41.11 -26.89,79.15 -40.58,113.67l-223.27 496.27zm978.32 855.51l-246.6 -560.19 -862.63 0 -252.72 560.19 -371.42 0 1053.92 -2262.1 1052.9 2262.1 -373.45 0z"/>
   <path class="fil0" d="M7309.27 12016.63l90.83 0c196.37,0 327.29,-21.31 392.75,-63.94 65.46,-42.63 97.92,-117.72 97.92,-225.81 0,-115.69 -35,-197.38 -105.03,-245.09 -69.52,-47.18 -198.41,-71.03 -385.64,-71.03l-90.83 0 0 605.87zm-21.32 289.24l0 977.29 -331.84 0 0 -2176.87 534.82 0c158.83,0 275.53,8.63 350.64,25.89 74.58,17.25 140.04,46.17 195.86,85.76 68.49,50.24 121.78,118.73 160.84,203.99 38.57,85.74 57.86,180.12 57.86,283.13 0,103.51 -19.29,198.4 -57.86,285.69 -39.06,87.28 -92.35,155.78 -160.84,205 -55.82,39.58 -121.28,67.98 -195.86,84.75 -75.11,16.74 -191.81,25.37 -350.64,25.37l-69.52 0 -133.46 0z"/>
   <path class="fil0" d="M10095.52 12016.63l90.83 0c196.38,0 327.3,-21.31 392.76,-63.94 65.45,-42.63 97.92,-117.72 97.92,-225.81 0,-115.69 -35.01,-197.38 -105.04,-245.09 -69.51,-47.18 -198.4,-71.03 -385.64,-71.03l-90.83 0 0 605.87zm-21.31 289.24l0 977.29 -331.85 0 0 -2176.87 534.82 0c158.83,0 275.53,8.63 350.64,25.89 74.58,17.25 140.04,46.17 195.87,85.76 68.49,50.24 121.77,118.73 160.84,203.99 38.57,85.74 57.85,180.12 57.85,283.13 0,103.51 -19.28,198.4 -57.85,285.69 -39.07,87.28 -92.35,155.78 -160.84,205 -55.83,39.58 -121.29,67.98 -195.87,84.75 -75.11,16.74 -191.81,25.37 -350.64,25.37l-69.51 0 -133.46 0z"/>
   <path class="fil0" d="M12881.77 12034.89l64.46 0c187.24,0 311.55,-21.82 372.96,-65.46 61.4,-43.63 92.34,-120.77 92.34,-231.89 0,-119.75 -32.99,-203.98 -98.94,-253.21 -65.97,-49.21 -188.26,-73.57 -366.36,-73.57l-64.46 0 0 624.13zm-21.31 274.01l0 974.26 -331.85 0 0 -2176.87 493.22 0c144.61,0 256.76,9.65 336.93,28.43 79.66,18.77 147.66,49.72 203.98,93.37 67.49,52.77 119.26,120.75 156.29,203.98 36.54,83.21 54.8,174.04 54.8,273.5 0,174.06 -42.11,310.55 -126.34,409.5 -84.24,98.43 -208.56,157.8 -372.96,177.6l748.97 990.49 -398.85 0 -724.61 -974.26 -39.58 0z"/>
   <path class="fil0" d="M17262.86 12199.3c0,-110.12 -20.31,-214.64 -60.38,-313.59 -40.08,-98.94 -97.94,-187.23 -173.03,-264.37 -73.59,-76.61 -158.32,-134.98 -254.74,-176.07 -96.92,-41.11 -198.9,-61.91 -305.47,-61.91 -107.07,0 -209.07,20.29 -305.98,60.88 -96.41,40.6 -182.67,99.46 -257.76,177.1 -75.11,76.11 -132.95,163.89 -172.54,262.86 -39.58,98.94 -59.36,203.98 -59.36,315.1 0,110.11 19.78,214.14 59.36,312.07 39.59,97.94 97.43,185.72 172.54,262.84 75.09,77.65 160.84,136.51 257.26,177.09 95.9,40.6 198.41,60.91 306.48,60.91 106.06,0 206.52,-20.31 302.43,-60.91 95.4,-40.58 181.66,-99.44 257.78,-177.09 75.09,-77.12 132.95,-164.9 173.03,-263.36 40.07,-98.94 60.38,-202.46 60.38,-311.55zm368.39 0c0,154.77 -28.92,300.9 -86.78,438.41 -58.34,138.03 -142.58,260.82 -253.7,368.9 -111.63,108.09 -237.98,190.81 -379.06,248.13 -140.55,57.34 -288.21,86.28 -442.47,86.28 -156.79,0 -305.98,-28.94 -448.56,-86.77 -142.09,-58.37 -267.41,-140.57 -376.51,-247.64 -111.14,-108.08 -195.37,-230.37 -252.71,-367.38 -57.33,-136.49 -86.26,-283.13 -86.26,-439.93 0,-155.78 28.93,-302.44 86.26,-439.93 57.34,-138.03 141.57,-261.33 252.71,-370.44 111.12,-108.07 236.96,-190.27 377.53,-246.61 140.55,-56.32 289.73,-84.72 447.54,-84.72 156.29,0 304.46,28.4 445.01,84.72 140.06,56.34 265.9,138.54 376.52,246.61 111.12,110.12 195.36,234.44 253.7,372.46 57.86,138.53 86.78,284.16 86.78,437.91z"/>
   <path class="fil0" d="M19841.06 13368.42l-971.74 -2262.13 367.89 0 487.64 1159.98c28.92,67 52.78,129.41 71.55,186.24 18.77,57.34 33.49,111.63 44.66,162.89 12.68,-54.31 28.92,-110.63 48.69,-169.49 19.8,-58.35 43.14,-118.23 70.03,-179.64l486.13 -1159.98 365.84 0 -970.69 2262.13z"/>
   <polygon class="fil0" points="22197.5,13283.16 22197.5,11106.29 23412.27,11106.29 23412.27,11407.72 22550.66,11407.72 22550.66,11952.69 23412.27,11952.69 23412.27,12263.24 22550.66,12263.24 22550.66,12966.53 23412.27,12966.53 23412.27,13283.16 "/>
   <path class="fil0" d="M25336.92 12963.49l146.16 0c519.33,0 852.37,-237.81 852.37,-770.28 0,-532.47 -382.7,-770.28 -913.45,-770.28l-85.08 0 0 1540.56zm-353.16 319.67l0 -2176.87 305.81 0c758.64,0 1395.31,143.23 1395.31,1089.97 0,834.47 -588.38,1086.9 -1395.31,1086.9l-305.81 0z"/>
   <rect class="fil0" x="3239.55" y="9261.66" width="23220.91" height="714.87"/>
  </g>
 </g>
</svg>
